<?xml version="1.0" encoding="UTF-8" standalone="no"?>
<!-- Created with Inkscape (http://www.inkscape.org/) -->
<svg
   xmlns:dc="http://purl.org/dc/elements/1.1/"
   xmlns:cc="http://web.resource.org/cc/"
   xmlns:rdf="http://www.w3.org/1999/02/22-rdf-syntax-ns#"
   xmlns:svg="http://www.w3.org/2000/svg"
   xmlns="http://www.w3.org/2000/svg"
   xmlns:sodipodi="http://inkscape.sourceforge.net/DTD/sodipodi-0.dtd"
   xmlns:inkscape="http://www.inkscape.org/namespaces/inkscape"
   width="600.00000pt"
   height="565.00000pt"
   id="svg3903"
   sodipodi:version="0.32"
   inkscape:version="0.42.2"
   sodipodi:docbase="D:\usr\felipelalli\Minhas imagens\Wikipédia\desenhos"
   sodipodi:docname="Star Prata.svg">
  <defs
     id="defs3905">
 <style
   id="style3915"
   type="text/css">
   
    .str0 {stroke:#000000;stroke-width:140}
    .fil0 {fill:none}
    .fil153 {fill:#FFB265}
    .fil152 {fill:#FFB367}
    .fil151 {fill:#FFB469}
    .fil150 {fill:#FFB56B}
    .fil149 {fill:#FFB66E}
    .fil148 {fill:#FFB770}
    .fil147 {fill:#FFB872}
    .fil146 {fill:#FFBA74}
    .fil145 {fill:#FFBB76}
    .fil144 {fill:#FFBC78}
    .fil143 {fill:#FFBD7B}
    .fil142 {fill:#FFBE7D}
    .fil141 {fill:#FFBF7F}
    .fil140 {fill:#FFC081}
    .fil139 {fill:#FFC183}
    .fil138 {fill:#FFC285}
    .fil137 {fill:#FFC388}
    .fil136 {fill:#FFC48A}
    .fil135 {fill:#FFC58C}
    .fil134 {fill:#FFC78E}
    .fil133 {fill:#FFC890}
    .fil132 {fill:#FFC992}
    .fil1 {fill:#FFCA94}
    .fil131 {fill:#FFCA95}
    .fil2 {fill:#FFCA96}
    .fil3 {fill:#FFCB97}
    .fil4 {fill:#FFCC99}
    .fil130 {fill:#FFCC9A}
    .fil5 {fill:#FFCD9B}
    .fil129 {fill:#FFCE9C}
    .fil6 {fill:#FFCE9D}
    .fil128 {fill:#FFCE9E}
    .fil127 {fill:#FFCF9E}
    .fil7 {fill:#FFCF9F}
    .fil126 {fill:#FFCFA0}
    .fil8 {fill:#FFD0A1}
    .fil125 {fill:#FFD1A2}
    .fil9 {fill:#FFD1A3}
    .fil124 {fill:#FFD1A4}
    .fil123 {fill:#FFD2A4}
    .fil10 {fill:#FFD2A5}
    .fil122 {fill:#FFD2A6}
    .fil11 {fill:#FFD3A7}
    .fil121 {fill:#FFD4A8}
    .fil12 {fill:#FFD4A9}
    .fil120 {fill:#FFD4AA}
    .fil13 {fill:#FFD5AB}
    .fil119 {fill:#FFD6AC}
    .fil14 {fill:#FFD6AD}
    .fil118 {fill:#FFD6AE}
    .fil117 {fill:#FFD7AE}
    .fil15 {fill:#FFD7AF}
    .fil116 {fill:#FFD7B0}
    .fil16 {fill:#FFD8B1}
    .fil115 {fill:#FFD9B2}
    .fil114 {fill:#FFD9B3}
    .fil17 {fill:#FFD9B4}
    .fil113 {fill:#FFDAB4}
    .fil112 {fill:#FFDAB5}
    .fil18 {fill:#FFDAB6}
    .fil111 {fill:#FFDBB7}
    .fil19 {fill:#FFDBB8}
    .fil110 {fill:#FFDCB8}
    .fil109 {fill:#FFDCB9}
    .fil20 {fill:#FFDCBA}
    .fil108 {fill:#FFDDBA}
    .fil107 {fill:#FFDDBB}
    .fil21 {fill:#FFDDBC}
    .fil106 {fill:#FFDEBC}
    .fil105 {fill:#FFDEBD}
    .fil22 {fill:#FFDEBE}
    .fil104 {fill:#FFDFBE}
    .fil103 {fill:#FFDFBF}
    .fil23 {fill:#FFDFC0}
    .fil102 {fill:#FFE0C1}
    .fil24 {fill:#FFE0C2}
    .fil101 {fill:#FFE1C2}
    .fil100 {fill:#FFE1C3}
    .fil25 {fill:#FFE1C4}
    .fil99 {fill:#FFE2C4}
    .fil98 {fill:#FFE2C5}
    .fil26 {fill:#FFE2C6}
    .fil97 {fill:#FFE3C7}
    .fil27 {fill:#FFE3C8}
    .fil96 {fill:#FFE4C8}
    .fil95 {fill:#FFE4C9}
    .fil28 {fill:#FFE4CA}
    .fil94 {fill:#FFE5CA}
    .fil93 {fill:#FFE5CB}
    .fil29 {fill:#FFE5CC}
    .fil92 {fill:#FFE6CD}
    .fil91 {fill:#FFE6CE}
    .fil30 {fill:#FFE7CE}
    .fil90 {fill:#FFE7CF}
    .fil89 {fill:#FFE7D0}
    .fil31 {fill:#FFE8D0}
    .fil88 {fill:#FFE8D1}
    .fil32 {fill:#FFE9D2}
    .fil87 {fill:#FFE9D3}
    .fil86 {fill:#FFE9D4}
    .fil33 {fill:#FFEAD4}
    .fil85 {fill:#FFEAD5}
    .fil84 {fill:#FFEAD6}
    .fil34 {fill:#FFEBD6}
    .fil83 {fill:#FFEBD7}
    .fil35 {fill:#FFECD8}
    .fil82 {fill:#FFECD9}
    .fil81 {fill:#FFECDA}
    .fil36 {fill:#FFEDDA}
    .fil80 {fill:#FFEDDB}
    .fil79 {fill:#FFEDDC}
    .fil37 {fill:#FFEEDC}
    .fil78 {fill:#FFEEDD}
    .fil77 {fill:#FFEEDE}
    .fil38 {fill:#FFEFDE}
    .fil76 {fill:#FFEFDF}
    .fil75 {fill:#FFEFE0}
    .fil39 {fill:#FFF0E0}
    .fil74 {fill:#FFF0E1}
    .fil40 {fill:#FFF1E2}
    .fil73 {fill:#FFF1E3}
    .fil72 {fill:#FFF1E4}
    .fil41 {fill:#FFF2E4}
    .fil71 {fill:#FFF2E5}
    .fil70 {fill:#FFF2E6}
    .fil42 {fill:#FFF3E7}
    .fil69 {fill:#FFF4E8}
    .fil43 {fill:#FFF4E9}
    .fil68 {fill:#FFF4EA}
    .fil67 {fill:#FFF5EA}
    .fil44 {fill:#FFF5EB}
    .fil66 {fill:#FFF5EC}
    .fil45 {fill:#FFF6ED}
    .fil65 {fill:#FFF7EE}
    .fil46 {fill:#FFF7EF}
    .fil64 {fill:#FFF7F0}
    .fil47 {fill:#FFF8F1}
    .fil63 {fill:#FFF9F2}
    .fil48 {fill:#FFF9F3}
    .fil62 {fill:#FFF9F4}
    .fil61 {fill:#FFFAF4}
    .fil49 {fill:#FFFAF5}
    .fil60 {fill:#FFFAF6}
    .fil50 {fill:#FFFBF7}
    .fil59 {fill:#FFFCF8}
    .fil51 {fill:#FFFCF9}
    .fil58 {fill:#FFFCFA}
    .fil57 {fill:#FFFDFA}
    .fil52 {fill:#FFFDFB}
    .fil56 {fill:#FFFDFC}
    .fil53 {fill:#FFFEFD}
    .fil55 {fill:#FFFFFE}
    .fil54 {fill:#FFFFFF}
   
  </style>

  
  
  
  
  
  
  
  
  
  
  
  
  
  
  
  
  
  
  
  
  
  
  
  
  
  
  
  
  
  
  
  
  
  
  
  
  
  
  
  
  
  
  
  
  
  
  
  
  
  
  
  
  
  
  
  
  
  
  
  
  
  
  
  
  
  
  
  
  
  
  
  
  
  
  
  
  
  
  
  
  
  
  
  
  
  
  
  
  
  
  
  
  
  
  
  
  
  
  
  
  
  
  
  
  
  
  
  
  
  
  
  
  
  
  
  
  
  
  
  
  
  
  
  
  
  
  
  
  
  
  
  
  
  
  
  
  
  
  
  
  
  
  
  
  
  
  
  
  
  
  
  
  
  
  
  
  
  
  
  
  
  
  
  
  
  
  
  
  
  
  
  
  
  
  
  
  
  
  
  
  
  
  
  
  
  
  
  
  
  
  
  
  
  
  
  
  
  
  
  
  
  
  
  
  
  
  
  
  
  
  
  
  
  
  
  
  
  
  
  
 
 <style
   id="style5310"
   type="text/css">
   
    .str0 {stroke:#000000;stroke-width:140}
    .fil0 {fill:none}
    .fil91 {fill:#A5A5A5}
    .fil90 {fill:#A6A6A6}
    .fil89 {fill:#A7A7A7}
    .fil88 {fill:#A8A8A8}
    .fil87 {fill:#A9A9A9}
    .fil86 {fill:#AAAAAA}
    .fil85 {fill:#ABABAB}
    .fil84 {fill:#ACACAC}
    .fil83 {fill:#ADADAD}
    .fil82 {fill:#AEAEAE}
    .fil81 {fill:#AFAFAF}
    .fil80 {fill:#B0B0B0}
    .fil79 {fill:#B1B1B1}
    .fil78 {fill:#B2B2B2}
    .fil77 {fill:#B3B3B3}
    .fil76 {fill:#B4B4B4}
    .fil75 {fill:#B5B5B5}
    .fil74 {fill:#B6B6B6}
    .fil73 {fill:#B7B7B7}
    .fil72 {fill:#B8B8B8}
    .fil71 {fill:#B9B9B9}
    .fil70 {fill:#BABABA}
    .fil69 {fill:#BBBBBB}
    .fil68 {fill:#BCBCBC}
    .fil67 {fill:#BDBDBD}
    .fil66 {fill:#BEBEBE}
    .fil65 {fill:#BFBFBF}
    .fil64 {fill:#C0C0C0}
    .fil63 {fill:#C1C1C1}
    .fil62 {fill:#C2C2C2}
    .fil61 {fill:#C3C3C3}
    .fil60 {fill:#C4C4C4}
    .fil59 {fill:#C5C5C5}
    .fil58 {fill:#C6C6C6}
    .fil57 {fill:#C7C7C7}
    .fil56 {fill:#C8C8C8}
    .fil55 {fill:#C9C9C9}
    .fil54 {fill:#CACACA}
    .fil53 {fill:#CBCBCB}
    .fil52 {fill:#CCCCCC}
    .fil51 {fill:#CDCDCD}
    .fil50 {fill:#CECECE}
    .fil49 {fill:#CFCFCF}
    .fil48 {fill:#D0D0D0}
    .fil47 {fill:#D1D1D1}
    .fil46 {fill:#D2D2D2}
    .fil45 {fill:#D3D3D3}
    .fil44 {fill:#D4D4D4}
    .fil43 {fill:#D5D5D5}
    .fil42 {fill:#D6D6D6}
    .fil41 {fill:#D7D7D7}
    .fil40 {fill:#D8D8D8}
    .fil39 {fill:#D9D9D9}
    .fil38 {fill:#DADADA}
    .fil37 {fill:#DBDBDB}
    .fil36 {fill:#DCDCDC}
    .fil35 {fill:#DDDDDD}
    .fil34 {fill:#DEDEDE}
    .fil33 {fill:#DFDFDF}
    .fil32 {fill:#E0E0E0}
    .fil31 {fill:#E1E1E1}
    .fil30 {fill:#E2E2E2}
    .fil29 {fill:#E3E3E3}
    .fil28 {fill:#E4E4E4}
    .fil1 {fill:#E5E5E5}
    .fil2 {fill:#E6E6E6}
    .fil3 {fill:#E7E7E7}
    .fil4 {fill:#E8E8E8}
    .fil5 {fill:#E9E9E9}
    .fil6 {fill:#EAEAEA}
    .fil7 {fill:#EBEBEB}
    .fil8 {fill:#ECECEC}
    .fil9 {fill:#EDEDED}
    .fil10 {fill:#EEEEEE}
    .fil11 {fill:#EFEFEF}
    .fil12 {fill:#F0F0F0}
    .fil13 {fill:#F1F1F1}
    .fil14 {fill:#F2F2F2}
    .fil15 {fill:#F3F3F3}
    .fil16 {fill:#F4F4F4}
    .fil17 {fill:#F5F5F5}
    .fil18 {fill:#F6F6F6}
    .fil19 {fill:#F7F7F7}
    .fil20 {fill:#F8F8F8}
    .fil21 {fill:#F9F9F9}
    .fil22 {fill:#FAFAFA}
    .fil23 {fill:#FBFBFB}
    .fil24 {fill:#FCFCFC}
    .fil25 {fill:#FDFDFD}
    .fil26 {fill:#FEFEFE}
    .fil27 {fill:#FFFFFF}
   
  </style>

  
  
  
  
  
  
  
  
  
  
  
  
  
  
  
  
  
  
  
  
  
  
  
  
  
  
  
  
  
  
  
  
  
  
  
  
  
  
  
  
  
  
  
  
  
  
  
  
  
  
  
  
  
  
  
  
  
  
  
  
  
  
  
  
  
  
  
  
  
  
  
  
  
  
  
  
  
  
  
  
  
  
  
  
  
  
  
  
  
  
  
  
  
  
  
  
  
  
  
  
  
  
  
  
  
  
  
  
  
  
  
  
  
  
  
  
  
  
  
  
  
  
  
  
  
  
  
  
  
  
  
  
  
  
  
  
  
  
  
  
  
  
  
  
  
  
  
  
  
  
  
  
  
  
  
  
  
  
  
  
  
  
  
  
  
  
  
  
  
  
  
  
  
  
  
  
  
  
  
  
  
  
  
  
  
  
  
  
  
  
  
  
  
  
  
  
  
  
  
  
  
  
  
  
  
  
  
  
  
  
  
  
  
  
  
  
  
  
  
  
 </defs>
  <sodipodi:namedview
     id="base"
     pagecolor="#ffffff"
     bordercolor="#666666"
     borderopacity="1.0"
     inkscape:pageopacity="0.0"
     inkscape:pageshadow="2"
     inkscape:zoom="0.54140796"
     inkscape:cx="440.71565"
     inkscape:cy="343.05707"
     inkscape:document-units="px"
     inkscape:current-layer="layer1"
     inkscape:window-width="1024"
     inkscape:window-height="712"
     inkscape:window-x="-4"
     inkscape:window-y="-4" />
  <metadata
     id="metadata3908">
    <rdf:RDF>
      <cc:Work
         rdf:about="">
        <dc:format>image/svg+xml</dc:format>
        <dc:type
           rdf:resource="http://purl.org/dc/dcmitype/StillImage" />
      </cc:Work>
    </rdf:RDF>
  </metadata>
  <g
     inkscape:label="Layer 1"
     inkscape:groupmode="layer"
     id="layer1">
    <path
       style="fill:none;stroke:#000000;stroke-width:59.999989;stroke-miterlimit:4.0000000;stroke-dasharray:none"
       id="173389504"
       class="fil0 str0"
       d="M 374.53498,61.656790 L 479.71211,235.95980 L 685.76672,287.55614 L 552.47618,441.68366 L 567.02901,653.69169 L 379.49616,574.64345 L 182.04094,653.69169 L 199.57047,450.94454 L 63.303213,287.55614 L 261.41991,241.58248 L 374.53498,61.656790 z " />
    <path
       style="fill:#e5e5e5"
       id="173389416"
       class="fil1"
       d="M 375.52726,63.310498 L 371.88906,65.956464 L 374.53503,61.656769 L 375.52726,63.310498 z " />
    <path
       style="fill:#e5e5e5"
       id="173389328"
       class="fil1"
       d="M 371.88906,65.956464 L 375.52726,63.310498 L 371.88906,65.956464 z " />
    <path
       style="fill:#e5e5e5"
       id="173389240"
       class="fil1"
       d="M 371.88906,65.956464 L 375.52726,63.310498 L 377.18099,65.956464 L 368.25085,71.909889 L 371.88906,65.956464 z " />
    <path
       style="fill:#e6e6e6"
       id="173389152"
       class="fil2"
       d="M 368.25085,71.909889 L 377.18099,65.956464 L 378.50398,68.271685 L 364.28191,77.863314 L 368.25085,71.909889 z " />
    <path
       style="fill:#e6e6e6"
       id="173389064"
       class="fil2"
       d="M 364.28191,77.863314 L 378.50398,68.271685 L 380.15770,70.586905 L 360.64370,83.816739 L 364.28191,77.863314 z " />
    <path
       style="fill:#e7e7e7"
       id="173388976"
       class="fil3"
       d="M 360.64370,83.816739 L 380.15770,70.586905 L 381.48068,72.902127 L 357.00550,89.439418 L 360.64370,83.816739 z " />
    <path
       style="fill:#e7e7e7"
       id="173388888"
       class="fil3"
       d="M 357.00550,89.439418 L 381.48068,72.902127 L 382.80367,75.548093 L 353.36729,95.392842 L 357.00550,89.439418 z M 70.248875,285.90243 L 64.956942,289.54064 L 63.303213,287.55616 L 70.248875,285.90243 z " />
    <path
       style="fill:#e8e8e8"
       id="173388800"
       class="fil4"
       d="M 64.956942,289.54064 L 70.248875,285.90243 L 77.856030,284.24870 L 66.610672,291.85586 L 64.956942,289.54064 z M 353.36729,95.392842 L 382.80367,75.548093 L 384.45741,77.863314 L 349.72910,101.34626 L 353.36729,95.392842 z " />
    <path
       style="fill:#e8e8e8"
       id="173388712"
       class="fil4"
       d="M 66.610672,291.85586 L 77.856030,284.24870 L 85.463178,282.26422 L 68.595146,293.84032 L 66.610672,291.85586 z M 349.72910,101.34626 L 384.45741,77.863314 L 385.78039,80.178534 L 346.09089,106.96895 L 349.72910,101.34626 z " />
    <path
       style="fill:#e9e9e9"
       id="173388624"
       class="fil5"
       d="M 68.595146,293.84032 L 85.463178,282.26422 L 93.070334,280.61049 L 70.248875,295.82481 L 68.595146,293.84032 z M 346.09089,106.96895 L 385.78039,80.178534 L 387.10336,82.493755 L 342.45268,112.59163 L 346.09089,106.96895 z " />
    <path
       style="fill:#e9e9e9"
       id="173388536"
       class="fil5"
       d="M 70.248875,295.82481 L 93.070334,280.61049 L 100.67749,278.95677 L 72.233351,298.14003 L 70.248875,295.82481 z M 342.45268,112.59163 L 387.10336,82.493755 L 388.75709,85.139722 L 338.81448,118.54505 L 342.45268,112.59163 z " />
    <path
       style="fill:#eaeaea"
       id="173388448"
       class="fil6"
       d="M 72.233351,298.14003 L 100.67749,278.95677 L 108.61538,276.97229 L 73.887080,300.45524 L 72.233351,298.14003 z M 338.81448,118.54505 L 388.75709,85.139722 L 390.08008,87.454942 L 334.84553,124.49847 L 338.81448,118.54505 z " />
    <path
       style="fill:#eaeaea"
       id="173388360"
       class="fil6"
       d="M 73.887080,300.45524 L 108.61538,276.97229 L 116.22254,275.31857 L 75.871554,302.43972 L 73.887080,300.45524 z M 334.84553,124.49847 L 390.08008,87.454942 L 391.40306,89.770163 L 331.53807,130.45190 L 334.84553,124.49847 z " />
    <path
       style="fill:#ebebeb"
       id="173388272"
       class="fil7"
       d="M 75.871554,302.43972 L 116.22254,275.31857 L 123.49895,273.66483 L 77.525283,304.75494 L 75.871554,302.43972 z M 331.53807,130.45190 L 391.40306,89.770163 L 393.05679,92.085384 L 327.89987,136.07457 L 331.53807,130.45190 z " />
    <path
       style="fill:#ebebeb"
       id="173388184"
       class="fil7"
       d="M 77.525283,304.75494 L 123.49895,273.66483 L 131.43685,271.68036 L 79.509758,306.73942 L 77.525283,304.75494 z M 327.89987,136.07457 L 393.05679,92.085384 L 394.37977,94.731348 L 323.93091,142.02800 L 327.89987,136.07457 z " />
    <path
       style="fill:#ececec"
       id="173388096"
       class="fil8"
       d="M 79.509758,306.73942 L 131.43685,271.68036 L 139.04400,270.02663 L 81.163484,309.05464 L 79.509758,306.73942 z M 323.93091,142.02800 L 394.37977,94.731348 L 395.70276,97.046568 L 320.29271,147.65068 L 323.93091,142.02800 z " />
    <path
       style="fill:#ececec"
       id="173388008"
       class="fil8"
       d="M 81.163484,309.05464 L 139.04400,270.02663 L 146.32042,268.37290 L 82.817220,311.03912 L 81.163484,309.05464 z M 320.29271,147.65068 L 395.70276,97.046568 L 397.35649,99.361789 L 316.65451,153.60411 L 320.29271,147.65068 z " />
    <path
       style="fill:#ededed"
       id="173387920"
       class="fil9"
       d="M 82.817220,311.03912 L 146.32042,268.37290 L 154.25831,266.38843 L 84.801694,313.35433 L 82.817220,311.03912 z M 316.65451,153.60411 L 397.35649,99.361789 L 398.67947,101.67701 L 313.01630,159.55753 L 316.65451,153.60411 z " />
    <path
       style="fill:#ededed"
       id="173387832"
       class="fil9"
       d="M 84.801694,313.35433 L 154.25831,266.38843 L 161.86547,264.73470 L 86.455420,315.33880 L 84.801694,313.35433 z M 313.01630,159.55753 L 398.67947,101.67701 L 400.33319,104.32298 L 309.37809,165.51096 L 313.01630,159.55753 z " />
    <path
       style="fill:#eeeeee"
       id="173387744"
       class="fil10"
       d="M 86.455420,315.33880 L 161.86547,264.73470 L 169.47262,262.75022 L 88.439893,317.65403 L 86.455420,315.33880 z M 309.37809,165.51096 L 400.33319,104.32298 L 401.65618,106.63820 L 305.73989,171.13363 L 309.37809,165.51096 z " />
    <path
       style="fill:#eeeeee"
       id="173387656"
       class="fil10"
       d="M 88.439893,317.65403 L 169.47262,262.75022 L 177.07977,261.09650 L 90.093629,319.63850 L 88.439893,317.65403 z M 305.73989,171.13363 L 401.65618,106.63820 L 402.97916,108.95342 L 302.10169,177.08706 L 305.73989,171.13363 z " />
    <path
       style="fill:#efefef"
       id="173387568"
       class="fil11"
       d="M 90.093629,319.63850 L 177.07977,261.09650 L 184.68693,259.44276 L 92.078103,321.95372 L 90.093629,319.63850 z M 302.10169,177.08706 L 402.97916,108.95342 L 404.63290,111.26864 L 298.46350,183.04048 L 302.10169,177.08706 z " />
    <path
       style="fill:#efefef"
       id="173387480"
       class="fil11"
       d="M 92.078103,321.95372 L 184.68693,259.44276 L 192.62483,257.45829 L 93.731829,323.93820 L 92.078103,321.95372 z M 298.46350,183.04048 L 404.63290,111.26864 L 405.95588,113.91461 L 294.49454,188.99390 L 298.46350,183.04048 z " />
    <path
       style="fill:#f0f0f0"
       id="173387392"
       class="fil12"
       d="M 93.731829,323.93820 L 192.62483,257.45829 L 200.23198,255.80455 L 95.716300,326.25341 L 93.731829,323.93820 z M 294.49454,188.99390 L 405.95588,113.91461 L 407.27887,116.22983 L 290.85634,194.61658 L 294.49454,188.99390 z " />
    <path
       style="fill:#f0f0f0"
       id="173387304"
       class="fil12"
       d="M 95.716300,326.25341 L 200.23198,255.80455 L 207.50840,254.15083 L 97.370026,328.23790 L 95.716300,326.25341 z M 290.85634,194.61658 L 407.27887,116.22983 L 408.93259,118.54505 L 287.21813,200.23927 L 290.85634,194.61658 z " />
    <path
       style="fill:#f1f1f1"
       id="173387216"
       class="fil13"
       d="M 97.370026,328.23790 L 207.50840,254.15083 L 215.44629,252.16636 L 99.023763,330.55312 L 97.370026,328.23790 z M 287.21813,200.23927 L 408.93259,118.54505 L 410.25557,120.86027 L 283.57993,206.19269 L 287.21813,200.23927 z " />
    <path
       style="fill:#f1f1f1"
       id="173387128"
       class="fil13"
       d="M 99.023763,330.55312 L 215.44629,252.16636 L 222.72269,250.51263 L 101.00824,332.53759 L 99.023763,330.55312 z M 283.57993,206.19269 L 410.25557,120.86027 L 411.57856,123.17549 L 279.94172,212.14611 L 283.57993,206.19269 z " />
    <path
       style="fill:#f2f2f2"
       id="173387040"
       class="fil14"
       d="M 101.00824,332.53759 L 222.72269,250.51263 L 230.32985,248.85890 L 102.66196,334.85281 L 101.00824,332.53759 z M 279.94172,212.14611 L 411.57856,123.17549 L 413.23229,125.82146 L 276.30351,217.76879 L 279.94172,212.14611 z " />
    <path
       style="fill:#f2f2f2"
       id="173386952"
       class="fil14"
       d="M 102.66196,334.85281 L 230.32985,248.85890 L 238.26775,246.87443 L 104.64644,336.83728 L 102.66196,334.85281 z M 276.30351,217.76879 L 413.23229,125.82146 L 414.55527,128.13668 L 272.66531,223.72221 L 276.30351,217.76879 z " />
    <path
       style="fill:#f2f2f2"
       id="173386864"
       class="fil14"
       d="M 104.64644,336.83728 L 238.26775,246.87443 L 246.53639,244.88995 L 106.63092,339.48325 L 104.64644,336.83728 z M 272.66531,223.72221 L 414.55527,128.13668 L 416.20900,130.78264 L 268.69636,230.33713 L 272.66531,223.72221 z " />
    <path
       style="fill:#f3f3f3"
       id="173386776"
       class="fil15"
       d="M 106.63092,339.48325 L 246.53639,244.88995 L 254.14355,243.23623 L 108.28465,341.46773 L 106.63092,339.48325 z M 268.69636,230.33713 L 416.20900,130.78264 L 417.53199,133.09786 L 265.05817,235.95981 L 268.69636,230.33713 z " />
    <path
       style="fill:#f3f3f3"
       id="173386688"
       class="fil15"
       d="M 108.28465,341.46773 L 254.14355,243.23623 L 261.41996,241.58249 L 265.05817,235.95981 L 417.53199,133.09786 L 419.18572,135.41308 L 109.93837,343.45220 L 108.28465,341.46773 z " />
    <path
       style="fill:#f4f4f4"
       id="173386600"
       class="fil16"
       d="M 109.93837,343.45220 L 419.18572,135.41308 L 420.50870,138.05905 L 111.92284,345.76743 L 109.93837,343.45220 z " />
    <path
       style="fill:#f4f4f4"
       id="173386512"
       class="fil16"
       d="M 111.92284,345.76743 L 420.50870,138.05905 L 421.83167,140.37427 L 113.57657,348.08264 L 111.92284,345.76743 z " />
    <path
       style="fill:#f5f5f5"
       id="173386424"
       class="fil17"
       d="M 113.57657,348.08264 L 421.83167,140.37427 L 423.48540,142.68949 L 115.56105,350.06711 L 113.57657,348.08264 z " />
    <path
       style="fill:#f5f5f5"
       id="173386336"
       class="fil17"
       d="M 115.56105,350.06711 L 423.48540,142.68949 L 424.80839,145.00471 L 117.21478,352.38234 L 115.56105,350.06711 z " />
    <path
       style="fill:#f6f6f6"
       id="173386248"
       class="fil18"
       d="M 117.21478,352.38234 L 424.80839,145.00471 L 426.46213,147.65068 L 119.19925,354.36681 L 117.21478,352.38234 z " />
    <path
       style="fill:#f6f6f6"
       id="173386160"
       class="fil18"
       d="M 119.19925,354.36681 L 426.46213,147.65068 L 427.78510,149.96590 L 120.85298,356.68203 L 119.19925,354.36681 z " />
    <path
       style="fill:#f7f7f7"
       id="173386072"
       class="fil19"
       d="M 120.85298,356.68203 L 427.78510,149.96590 L 429.10809,152.28113 L 122.50671,358.66651 L 120.85298,356.68203 z " />
    <path
       style="fill:#f7f7f7"
       id="173385984"
       class="fil19"
       d="M 122.50671,358.66651 L 429.10809,152.28113 L 430.76182,154.59634 L 124.49119,360.98173 L 122.50671,358.66651 z " />
    <path
       style="fill:#f8f8f8"
       id="173385896"
       class="fil20"
       d="M 124.49119,360.98173 L 430.76182,154.59634 L 432.08480,157.24231 L 126.14492,362.96621 L 124.49119,360.98173 z " />
    <path
       style="fill:#f8f8f8"
       id="173385808"
       class="fil20"
       d="M 126.14492,362.96621 L 432.08480,157.24231 L 433.40778,159.55753 L 128.12940,365.28143 L 126.14492,362.96621 z " />
    <path
       style="fill:#f9f9f9"
       id="173385720"
       class="fil21"
       d="M 128.12940,365.28143 L 433.40778,159.55753 L 435.06150,161.87275 L 129.78313,367.26590 L 128.12940,365.28143 z " />
    <path
       style="fill:#f9f9f9"
       id="173385632"
       class="fil21"
       d="M 129.78313,367.26590 L 435.06150,161.87275 L 436.38449,164.18797 L 131.76759,369.58112 L 129.78313,367.26590 z " />
    <path
       style="fill:#fafafa"
       id="173385544"
       class="fil22"
       d="M 131.76759,369.58112 L 436.38449,164.18797 L 437.70747,166.50319 L 133.42133,371.56559 L 131.76759,369.58112 z " />
    <path
       style="fill:#fafafa"
       id="173385456"
       class="fil22"
       d="M 133.42133,371.56559 L 437.70747,166.50319 L 439.36121,169.14916 L 135.07505,373.88082 L 133.42133,371.56559 z " />
    <path
       style="fill:#fbfbfb"
       id="173385368"
       class="fil23"
       d="M 135.07505,373.88082 L 439.36121,169.14916 L 440.68420,171.46438 L 137.05953,375.86529 L 135.07505,373.88082 z " />
    <path
       style="fill:#fbfbfb"
       id="173385280"
       class="fil23"
       d="M 137.05953,375.86529 L 440.68420,171.46438 L 442.33792,173.77960 L 139.04400,378.18051 L 137.05953,375.86529 z " />
    <path
       style="fill:#fcfcfc"
       id="173385192"
       class="fil24"
       d="M 139.04400,378.18051 L 442.33792,173.77960 L 443.66090,176.09482 L 140.69772,380.49574 L 139.04400,378.18051 z " />
    <path
       style="fill:#fcfcfc"
       id="173385104"
       class="fil24"
       d="M 140.69772,380.49574 L 443.66090,176.09482 L 444.98388,178.74079 L 142.35146,382.48020 L 140.69772,380.49574 z " />
    <path
       style="fill:#fdfdfd"
       id="173385016"
       class="fil25"
       d="M 142.35146,382.48020 L 444.98388,178.74079 L 446.63761,181.05601 L 144.33593,384.46469 L 142.35146,382.48020 z " />
    <path
       style="fill:#fdfdfd"
       id="173384928"
       class="fil25"
       d="M 144.33593,384.46469 L 446.63761,181.05601 L 447.96060,183.37123 L 145.98967,386.77991 L 144.33593,384.46469 z " />
    <path
       style="fill:#fefefe"
       id="173384840"
       class="fil26"
       d="M 145.98967,386.77991 L 447.96060,183.37123 L 449.28358,185.68645 L 147.64340,388.76438 L 145.98967,386.77991 z " />
    <path
       style="fill:#fefefe"
       id="173384752"
       class="fil26"
       d="M 147.64340,388.76438 L 449.28358,185.68645 L 450.93731,188.33242 L 149.62787,391.07960 L 147.64340,388.76438 z " />
    <path
       style="fill:#ffffff"
       id="173384664"
       class="fil27"
       d="M 149.62787,391.07960 L 450.93731,188.33242 L 452.26030,190.64764 L 151.61234,393.39482 L 149.62787,391.07960 z " />
    <path
       style="fill:#ffffff"
       id="173384576"
       class="fil27"
       d="M 151.61234,393.39482 L 452.26030,190.64764 L 453.91403,192.96285 L 153.26607,395.37929 L 151.61234,393.39482 z " />
    <path
       style="fill:#ffffff"
       id="173384488"
       class="fil27"
       d="M 153.26607,395.37929 L 453.91403,192.96285 L 153.26607,395.37929 z " />
    <path
       style="fill:#ffffff"
       id="173384400"
       class="fil27"
       d="M 153.26607,395.37929 L 453.91403,192.96285 L 455.23701,195.27808 L 154.91981,397.36377 L 153.26607,395.37929 z " />
    <path
       style="fill:#fefefe"
       id="173384312"
       class="fil26"
       d="M 154.91981,397.36377 L 455.23701,195.27808 L 456.55998,197.92403 L 156.90428,399.67899 L 154.91981,397.36377 z " />
    <path
       style="fill:#fefefe"
       id="173384224"
       class="fil26"
       d="M 156.90428,399.67899 L 456.55998,197.92403 L 458.21371,200.23927 L 158.55801,401.99422 L 156.90428,399.67899 z " />
    <path
       style="fill:#fdfdfd"
       id="173384136"
       class="fil25"
       d="M 158.55801,401.99422 L 458.21371,200.23927 L 459.53670,202.55449 L 160.54248,403.97868 L 158.55801,401.99422 z " />
    <path
       style="fill:#fdfdfd"
       id="173384048"
       class="fil25"
       d="M 160.54248,403.97868 L 459.53670,202.55449 L 460.85968,204.86971 L 162.19620,406.29390 L 160.54248,403.97868 z " />
    <path
       style="fill:#fcfcfc"
       id="173383960"
       class="fil24"
       d="M 162.19620,406.29390 L 460.85968,204.86971 L 462.51341,207.51568 L 164.18069,408.27839 L 162.19620,406.29390 z " />
    <path
       style="fill:#fcfcfc"
       id="173383872"
       class="fil24"
       d="M 164.18069,408.27839 L 462.51341,207.51568 L 463.83640,209.83090 L 165.83441,410.59360 L 164.18069,408.27839 z " />
    <path
       style="fill:#fbfbfb"
       id="173383784"
       class="fil23"
       d="M 165.83441,410.59360 L 463.83640,209.83090 L 465.15938,212.14611 L 167.48814,412.57808 L 165.83441,410.59360 z " />
    <path
       style="fill:#fafafa"
       id="173383696"
       class="fil22"
       d="M 167.48814,412.57808 L 465.15938,212.14611 L 466.81311,214.46133 L 169.47262,414.89330 L 167.48814,412.57808 z " />
    <path
       style="fill:#fafafa"
       id="173383608"
       class="fil22"
       d="M 169.47262,414.89330 L 466.81311,214.46133 L 468.13609,217.10729 L 171.12635,416.87778 L 169.47262,414.89330 z " />
    <path
       style="fill:#f9f9f9"
       id="173383520"
       class="fil21"
       d="M 171.12635,416.87778 L 468.13609,217.10729 L 469.78981,219.42252 L 173.11082,419.19300 L 171.12635,416.87778 z " />
    <path
       style="fill:#f9f9f9"
       id="173383432"
       class="fil21"
       d="M 173.11082,419.19300 L 469.78981,219.42252 L 471.11280,221.73775 L 174.76455,421.17747 L 173.11082,419.19300 z " />
    <path
       style="fill:#f8f8f8"
       id="174301360"
       class="fil20"
       d="M 174.76455,421.17747 L 471.11280,221.73775 L 472.43578,224.05297 L 176.74903,423.49269 L 174.76455,421.17747 z " />
    <path
       style="fill:#f8f8f8"
       id="174301272"
       class="fil20"
       d="M 176.74903,423.49269 L 472.43578,224.05297 L 474.08952,226.69893 L 178.40276,425.47716 L 176.74903,423.49269 z " />
    <path
       style="fill:#f7f7f7"
       id="174301184"
       class="fil19"
       d="M 178.40276,425.47716 L 474.08952,226.69893 L 475.41251,229.01416 L 180.38722,427.79238 L 178.40276,425.47716 z " />
    <path
       style="fill:#f6f6f6"
       id="174301096"
       class="fil18"
       d="M 180.38722,427.79238 L 475.41251,229.01416 L 476.73549,231.32937 L 182.04096,429.77686 L 180.38722,427.79238 z " />
    <path
       style="fill:#f6f6f6"
       id="174301008"
       class="fil18"
       d="M 182.04096,429.77686 L 476.73549,231.32937 L 478.38921,233.64459 L 183.69468,432.09208 L 182.04096,429.77686 z " />
    <path
       style="fill:#f5f5f5"
       id="174300920"
       class="fil17"
       d="M 183.69468,432.09208 L 478.38921,233.64459 L 479.71219,235.95981 L 479.71219,235.95981 L 185.67917,434.07656 L 183.69468,432.09208 z " />
    <path
       style="fill:#f5f5f5"
       id="174300832"
       class="fil17"
       d="M 185.67917,434.07656 L 479.71219,235.95981 L 483.35040,236.95205 L 187.33289,436.39177 L 185.67917,434.07656 z " />
    <path
       style="fill:#f4f4f4"
       id="174300744"
       class="fil16"
       d="M 187.33289,436.39177 L 483.35040,236.95205 L 487.31935,237.94429 L 189.31737,438.37626 L 187.33289,436.39177 z " />
    <path
       style="fill:#f4f4f4"
       id="174300656"
       class="fil16"
       d="M 189.31737,438.37626 L 487.31935,237.94429 L 490.95756,238.60578 L 190.97110,440.69148 L 189.31737,438.37626 z " />
    <path
       style="fill:#f3f3f3"
       id="174300568"
       class="fil15"
       d="M 190.97110,440.69148 L 490.95756,238.60578 L 494.59576,239.59802 L 192.95557,443.00670 L 190.97110,440.69148 z " />
    <path
       style="fill:#f2f2f2"
       id="174300480"
       class="fil14"
       d="M 192.95557,443.00670 L 494.59576,239.59802 L 498.23397,240.59026 L 194.60930,444.99117 L 192.95557,443.00670 z " />
    <path
       style="fill:#f2f2f2"
       id="174300392"
       class="fil14"
       d="M 194.60930,444.99117 L 498.23397,240.59026 L 501.87217,241.58249 L 196.26303,447.30639 L 194.60930,444.99117 z " />
    <path
       style="fill:#f1f1f1"
       id="174300304"
       class="fil13"
       d="M 196.26303,447.30639 L 501.87217,241.58249 L 505.51037,242.57472 L 198.24750,449.29086 L 196.26303,447.30639 z " />
    <path
       style="fill:#f1f1f1"
       id="174300216"
       class="fil13"
       d="M 198.24750,449.29086 L 505.51037,242.57472 L 509.14857,243.23623 L 199.57048,451.60608 L 199.57048,450.94459 L 198.24750,449.29086 z " />
    <path
       style="fill:#f0f0f0"
       id="174300128"
       class="fil12"
       d="M 199.57048,451.60608 L 509.14857,243.23623 L 512.78677,244.22845 L 199.23975,455.24428 L 199.57048,451.60608 z " />
    <path
       style="fill:#f0f0f0"
       id="174300040"
       class="fil12"
       d="M 199.23975,455.24428 L 512.78677,244.22845 L 516.42498,245.22069 L 198.90900,458.88249 L 199.23975,455.24428 z " />
    <path
       style="fill:#efefef"
       id="174299952"
       class="fil11"
       d="M 198.90900,458.88249 L 516.42498,245.22069 L 520.06319,245.88218 L 198.57825,462.52069 L 198.90900,458.88249 z " />
    <path
       style="fill:#eeeeee"
       id="174299864"
       class="fil10"
       d="M 198.57825,462.52069 L 520.06319,245.88218 L 523.70138,246.87443 L 198.24750,466.15890 L 198.57825,462.52069 z " />
    <path
       style="fill:#eeeeee"
       id="174299776"
       class="fil10"
       d="M 198.24750,466.15890 L 523.70138,246.87443 L 527.33959,247.86666 L 197.91676,469.79710 L 198.24750,466.15890 z " />
    <path
       style="fill:#ededed"
       id="174299688"
       class="fil9"
       d="M 197.91676,469.79710 L 527.33959,247.86666 L 530.97779,248.85890 L 197.58602,473.43530 L 197.91676,469.79710 z " />
    <path
       style="fill:#ededed"
       id="174299600"
       class="fil9"
       d="M 197.58602,473.43530 L 530.97779,248.85890 L 534.61600,249.85114 L 197.25527,476.74276 L 197.58602,473.43530 z " />
    <path
       style="fill:#ececec"
       id="174299512"
       class="fil8"
       d="M 197.25527,476.74276 L 534.61600,249.85114 L 538.25421,250.51263 L 196.92451,480.38097 L 197.25527,476.74276 z " />
    <path
       style="fill:#ececec"
       id="174299424"
       class="fil8"
       d="M 196.92451,480.38097 L 538.25421,250.51263 L 541.89241,251.50487 L 196.59378,484.01917 L 196.92451,480.38097 z " />
    <path
       style="fill:#ebebeb"
       id="174299336"
       class="fil7"
       d="M 196.59378,484.01917 L 541.89241,251.50487 L 545.53061,252.49710 L 196.26303,487.65737 L 196.59378,484.01917 z " />
    <path
       style="fill:#eaeaea"
       id="174299248"
       class="fil6"
       d="M 196.26303,487.65737 L 545.53061,252.49710 L 549.16881,253.48934 L 196.26303,490.96484 L 196.26303,487.65737 z " />
    <path
       style="fill:#eaeaea"
       id="174299160"
       class="fil6"
       d="M 196.26303,490.96484 L 549.16881,253.48934 L 552.80702,254.15083 L 195.93229,494.60305 L 196.26303,490.96484 z " />
    <path
       style="fill:#e9e9e9"
       id="174299072"
       class="fil5"
       d="M 195.93229,494.60305 L 552.80702,254.15083 L 556.44523,255.14307 L 195.60154,498.24125 L 195.93229,494.60305 z " />
    <path
       style="fill:#e9e9e9"
       id="174298984"
       class="fil5"
       d="M 195.60154,498.24125 L 556.44523,255.14307 L 560.08343,256.13531 L 195.27079,501.87945 L 195.60154,498.24125 z " />
    <path
       style="fill:#e8e8e8"
       id="174298896"
       class="fil4"
       d="M 195.27079,501.87945 L 560.08343,256.13531 L 563.72164,257.12754 L 194.94005,505.51764 L 195.27079,501.87945 z " />
    <path
       style="fill:#e8e8e8"
       id="174298808"
       class="fil4"
       d="M 194.94005,505.51764 L 563.72164,257.12754 L 567.35984,257.78903 L 194.60930,509.15585 L 194.94005,505.51764 z " />
    <path
       style="fill:#e7e7e7"
       id="174298720"
       class="fil3"
       d="M 194.60930,509.15585 L 567.35984,257.78903 L 570.99804,258.78128 L 194.27856,512.79406 L 194.60930,509.15585 z " />
    <path
       style="fill:#e6e6e6"
       id="174298632"
       class="fil2"
       d="M 194.27856,512.79406 L 570.99804,258.78128 L 574.63625,259.77352 L 193.94781,516.10153 L 194.27856,512.79406 z " />
    <path
       style="fill:#e6e6e6"
       id="174298544"
       class="fil2"
       d="M 193.94781,516.10153 L 574.63625,259.77352 L 578.27445,260.76574 L 193.61706,519.73973 L 193.94781,516.10153 z " />
    <path
       style="fill:#e5e5e5"
       id="174298456"
       class="fil1"
       d="M 193.61706,519.73973 L 578.27445,260.76574 L 581.91266,261.42724 L 193.28631,523.37792 L 193.61706,519.73973 z " />
    <path
       style="fill:#e5e5e5"
       id="174298368"
       class="fil1"
       d="M 193.28631,523.37792 L 581.91266,261.42724 L 585.55086,262.41948 L 192.95557,527.01612 L 193.28631,523.37792 z " />
    <path
       style="fill:#e4e4e4"
       id="174298280"
       class="fil28"
       d="M 192.95557,527.01612 L 585.55086,262.41948 L 589.51981,263.41171 L 192.62483,530.65433 L 192.95557,527.01612 z " />
    <path
       style="fill:#e4e4e4"
       id="174298192"
       class="fil28"
       d="M 192.62483,530.65433 L 589.51981,263.41171 L 593.15801,264.40395 L 192.29408,534.29254 L 192.62483,530.65433 z " />
    <path
       style="fill:#e3e3e3"
       id="174298104"
       class="fil29"
       d="M 192.29408,534.29254 L 593.15801,264.40395 L 597.12696,265.39619 L 191.96333,537.93074 L 192.29408,534.29254 z " />
    <path
       style="fill:#e2e2e2"
       id="174298016"
       class="fil30"
       d="M 191.96333,537.93074 L 597.12696,265.39619 L 600.43441,266.05768 L 191.63259,541.56895 L 191.96333,537.93074 z " />
    <path
       style="fill:#e2e2e2"
       id="174297928"
       class="fil30"
       d="M 191.63259,541.56895 L 600.43441,266.05768 L 604.07262,267.04992 L 191.30184,545.20714 L 191.63259,541.56895 z " />
    <path
       style="fill:#e1e1e1"
       id="174297840"
       class="fil31"
       d="M 191.30184,545.20714 L 604.07262,267.04992 L 608.04157,268.04216 L 190.97110,548.84535 L 191.30184,545.20714 z " />
    <path
       style="fill:#e1e1e1"
       id="174297752"
       class="fil31"
       d="M 190.97110,548.84535 L 608.04157,268.04216 L 611.34903,269.03439 L 190.97110,552.15281 L 190.97110,548.84535 z " />
    <path
       style="fill:#e0e0e0"
       id="174297664"
       class="fil32"
       d="M 190.97110,552.15281 L 611.34903,269.03439 L 614.98724,269.69589 L 190.64035,555.79102 L 190.97110,552.15281 z " />
    <path
       style="fill:#e0e0e0"
       id="174297576"
       class="fil32"
       d="M 190.64035,555.79102 L 614.98724,269.69589 L 618.62544,270.68812 L 190.30960,559.42922 L 190.64035,555.79102 z " />
    <path
       style="fill:#dfdfdf"
       id="174297488"
       class="fil33"
       d="M 190.30960,559.42922 L 618.62544,270.68812 L 622.59440,271.68036 L 189.97886,563.06742 L 190.30960,559.42922 z " />
    <path
       style="fill:#dedede"
       id="174297400"
       class="fil34"
       d="M 189.97886,563.06742 L 622.59440,271.68036 L 625.90185,272.67260 L 189.64812,566.70562 L 189.97886,563.06742 z " />
    <path
       style="fill:#dedede"
       id="174297312"
       class="fil34"
       d="M 189.64812,566.70562 L 625.90185,272.67260 L 629.54005,273.66483 L 189.31737,570.01309 L 189.64812,566.70562 z " />
    <path
       style="fill:#dddddd"
       id="174297224"
       class="fil35"
       d="M 189.31737,570.01309 L 629.54005,273.66483 L 633.50900,274.32633 L 188.98662,573.65129 L 189.31737,570.01309 z " />
    <path
       style="fill:#dddddd"
       id="174297136"
       class="fil35"
       d="M 188.98662,573.65129 L 633.50900,274.32633 L 637.14721,275.31857 L 188.65587,577.28949 L 188.98662,573.65129 z " />
    <path
       style="fill:#dcdcdc"
       id="174297048"
       class="fil36"
       d="M 188.65587,577.28949 L 637.14721,275.31857 L 640.45467,276.31080 L 188.32514,580.92769 L 188.65587,577.28949 z " />
    <path
       style="fill:#dcdcdc"
       id="174296960"
       class="fil36"
       d="M 188.32514,580.92769 L 640.45467,276.31080 L 644.42361,277.30303 L 187.99438,584.56590 L 188.32514,580.92769 z " />
    <path
       style="fill:#dbdbdb"
       id="174296872"
       class="fil37"
       d="M 187.99438,584.56590 L 644.42361,277.30303 L 648.06182,277.96454 L 187.66364,588.20410 L 187.99438,584.56590 z " />
    <path
       style="fill:#dadada"
       id="174296784"
       class="fil38"
       d="M 187.66364,588.20410 L 648.06182,277.96454 L 651.36928,278.95677 L 187.33289,591.51157 L 187.66364,588.20410 z " />
    <path
       style="fill:#dadada"
       id="174296696"
       class="fil38"
       d="M 187.33289,591.51157 L 651.36928,278.95677 L 655.00748,279.94900 L 187.00215,595.14977 L 187.33289,591.51157 z " />
    <path
       style="fill:#d9d9d9"
       id="174296608"
       class="fil39"
       d="M 187.00215,595.14977 L 655.00748,279.94900 L 658.97643,280.94124 L 186.67140,598.78797 L 187.00215,595.14977 z " />
    <path
       style="fill:#d9d9d9"
       id="174296520"
       class="fil39"
       d="M 186.67140,598.78797 L 658.97643,280.94124 L 662.61463,281.60274 L 186.34065,602.42617 L 186.67140,598.78797 z " />
    <path
       style="fill:#d8d8d8"
       id="174296432"
       class="fil40"
       d="M 186.34065,602.42617 L 662.61463,281.60274 L 666.25284,282.59497 L 186.00992,606.06438 L 186.34065,602.42617 z " />
    <path
       style="fill:#d8d8d8"
       id="174296344"
       class="fil40"
       d="M 186.00992,606.06438 L 666.25284,282.59497 L 669.89104,283.58721 L 186.00992,609.37184 L 186.00992,606.06438 z " />
    <path
       style="fill:#d7d7d7"
       id="174296256"
       class="fil41"
       d="M 186.00992,609.37184 L 669.89104,283.58721 L 673.52924,284.57945 L 185.67917,613.01004 L 186.00992,609.37184 z " />
    <path
       style="fill:#d6d6d6"
       id="174296168"
       class="fil42"
       d="M 185.67917,613.01004 L 673.52924,284.57945 L 677.16745,285.57168 L 185.34841,616.64825 L 185.67917,613.01004 z " />
    <path
       style="fill:#d6d6d6"
       id="174296080"
       class="fil42"
       d="M 185.34841,616.64825 L 677.16745,285.57168 L 680.80565,286.23318 L 185.01767,619.95571 L 185.34841,616.64825 z " />
    <path
       style="fill:#d5d5d5"
       id="174295992"
       class="fil43"
       d="M 185.01767,619.95571 L 680.80565,286.23318 L 684.44386,287.22541 L 184.68693,623.59392 L 185.01767,619.95571 z " />
    <path
       style="fill:#d5d5d5"
       id="174295904"
       class="fil43"
       d="M 184.68693,623.59392 L 684.44386,287.22541 L 685.76684,287.55616 L 681.46714,292.84809 L 184.35618,627.23211 L 184.68693,623.59392 z " />
    <path
       style="fill:#d4d4d4"
       id="174295816"
       class="fil44"
       d="M 184.35618,627.23211 L 681.46714,292.84809 L 674.52148,300.45524 L 184.02543,630.87032 L 184.35618,627.23211 z " />
    <path
       style="fill:#d4d4d4"
       id="174295728"
       class="fil44"
       d="M 184.02543,630.87032 L 674.52148,300.45524 L 667.57582,308.72389 L 183.69468,634.50852 L 184.02543,630.87032 z " />
    <path
       style="fill:#d3d3d3"
       id="174295640"
       class="fil45"
       d="M 183.69468,634.50852 L 667.57582,308.72389 L 660.63016,316.66179 L 183.36395,638.14673 L 183.69468,634.50852 z " />
    <path
       style="fill:#d2d2d2"
       id="174295552"
       class="fil46"
       d="M 183.36395,638.14673 L 660.63016,316.66179 L 653.35375,324.93043 L 183.03319,641.78494 L 183.36395,638.14673 z " />
    <path
       style="fill:#d2d2d2"
       id="174295464"
       class="fil46"
       d="M 183.03319,641.78494 L 653.35375,324.93043 L 646.73883,332.86834 L 182.70245,645.42313 L 183.03319,641.78494 z " />
    <path
       style="fill:#d1d1d1"
       id="174295376"
       class="fil47"
       d="M 182.70245,645.42313 L 646.73883,332.86834 L 639.79317,340.80624 L 182.37171,648.73059 L 182.70245,645.42313 z " />
    <path
       style="fill:#d1d1d1"
       id="174295288"
       class="fil47"
       d="M 182.37171,648.73059 L 639.79317,340.80624 L 632.51676,349.07488 L 182.04096,652.36880 L 182.37171,648.73059 z " />
    <path
       style="fill:#d0d0d0"
       id="174295200"
       class="fil48"
       d="M 182.04096,652.36880 L 632.51676,349.07488 L 625.90185,357.01278 L 189.97886,650.38432 L 182.04096,653.69178 L 182.04096,652.36880 z " />
    <path
       style="fill:#d0d0d0"
       id="174295112"
       class="fil48"
       d="M 189.97886,650.38432 L 625.90185,357.01278 L 618.95619,364.95068 L 201.88570,645.75388 L 189.97886,650.38432 z " />
    <path
       style="fill:#cfcfcf"
       id="174295024"
       class="fil49"
       d="M 201.88570,645.75388 L 618.95619,364.95068 L 611.67978,373.21932 L 214.45405,640.79269 L 201.88570,645.75388 z " />
    <path
       style="fill:#cecece"
       id="174294936"
       class="fil50"
       d="M 214.45405,640.79269 L 611.67978,373.21932 L 604.73412,381.48797 L 227.02239,635.83151 L 214.45405,640.79269 z " />
    <path
       style="fill:#cecece"
       id="174294848"
       class="fil50"
       d="M 227.02239,635.83151 L 604.73412,381.48797 L 597.78845,389.09513 L 239.25998,630.87032 L 227.02239,635.83151 z " />
    <path
       style="fill:#cdcdcd"
       id="174294760"
       class="fil51"
       d="M 239.25998,630.87032 L 597.78845,389.09513 L 590.84279,397.36377 L 251.16684,625.90913 L 239.25998,630.87032 z " />
    <path
       style="fill:#cdcdcd"
       id="174294672"
       class="fil51"
       d="M 251.16684,625.90913 L 590.84279,397.36377 L 583.89712,405.63241 L 263.73518,620.94795 L 251.16684,625.90913 z " />
    <path
       style="fill:#cccccc"
       id="174294584"
       class="fil52"
       d="M 263.73518,620.94795 L 583.89712,405.63241 L 576.62072,413.57032 L 276.30351,615.98676 L 263.73518,620.94795 z " />
    <path
       style="fill:#cccccc"
       id="174294496"
       class="fil52"
       d="M 276.30351,615.98676 L 576.62072,413.57032 L 570.00581,421.50822 L 288.87186,611.02557 L 276.30351,615.98676 z " />
    <path
       style="fill:#cbcbcb"
       id="174294408"
       class="fil53"
       d="M 288.87186,611.02557 L 570.00581,421.50822 L 563.06014,429.44611 L 300.77871,606.06438 L 288.87186,611.02557 z " />
    <path
       style="fill:#cacaca"
       id="174294320"
       class="fil54"
       d="M 300.77871,606.06438 L 563.06014,429.44611 L 555.78374,437.71476 L 313.34705,601.10320 L 300.77871,606.06438 z " />
    <path
       style="fill:#cacaca"
       id="174294232"
       class="fil54"
       d="M 313.34705,601.10320 L 555.78374,437.71476 L 552.47627,441.68372 L 552.47627,443.33744 L 325.58465,596.14201 L 313.34705,601.10320 z " />
    <path
       style="fill:#c9c9c9"
       id="174294144"
       class="fil55"
       d="M 325.58465,596.14201 L 552.47627,443.33744 L 552.80702,446.64490 L 337.49149,591.51157 L 325.58465,596.14201 z " />
    <path
       style="fill:#c9c9c9"
       id="174294056"
       class="fil55"
       d="M 337.49149,591.51157 L 552.80702,446.64490 L 553.13777,449.62161 L 350.05983,586.55038 L 337.49149,591.51157 z " />
    <path
       style="fill:#c8c8c8"
       id="174293968"
       class="fil56"
       d="M 350.05983,586.55038 L 553.13777,449.62161 L 553.13777,452.92906 L 362.62818,581.25845 L 350.05983,586.55038 z " />
    <path
       style="fill:#c8c8c8"
       id="174293880"
       class="fil56"
       d="M 362.62818,581.25845 L 553.13777,452.92906 L 553.46851,456.23653 L 374.86577,576.62800 L 362.62818,581.25845 z " />
    <path
       style="fill:#c7c7c7"
       id="174293792"
       class="fil57"
       d="M 374.86577,576.62800 L 553.46851,456.23653 L 553.79926,459.21323 L 381.48068,575.30502 L 379.49622,574.64353 L 374.86577,576.62800 z " />
    <path
       style="fill:#c6c6c6"
       id="174293704"
       class="fil58"
       d="M 381.48068,575.30502 L 553.79926,459.21323 L 553.79926,462.52069 L 384.45741,576.62800 L 381.48068,575.30502 z " />
    <path
       style="fill:#c6c6c6"
       id="174293616"
       class="fil58"
       d="M 384.45741,576.62800 L 553.79926,462.52069 L 554.13000,465.82815 L 387.43411,577.95099 L 384.45741,576.62800 z " />
    <path
       style="fill:#c5c5c5"
       id="174293528"
       class="fil59"
       d="M 387.43411,577.95099 L 554.13000,465.82815 L 554.46075,469.13561 L 390.41082,579.27397 L 387.43411,577.95099 z " />
    <path
       style="fill:#c5c5c5"
       id="174293440"
       class="fil59"
       d="M 390.41082,579.27397 L 554.46075,469.13561 L 554.46075,472.11232 L 393.71828,580.59696 L 390.41082,579.27397 z " />
    <path
       style="fill:#c4c4c4"
       id="174293352"
       class="fil60"
       d="M 393.71828,580.59696 L 554.46075,472.11232 L 554.79150,475.41979 L 396.69499,581.91994 L 393.71828,580.59696 z " />
    <path
       style="fill:#c4c4c4"
       id="174293264"
       class="fil60"
       d="M 396.69499,581.91994 L 554.79150,475.41979 L 555.12224,478.72724 L 400.00246,583.24291 L 396.69499,581.91994 z " />
    <path
       style="fill:#c3c3c3"
       id="174309560"
       class="fil61"
       d="M 400.00246,583.24291 L 555.12224,478.72724 L 555.12224,482.03470 L 402.97916,584.56590 L 400.00246,583.24291 z " />
    <path
       style="fill:#c2c2c2"
       id="174309472"
       class="fil62"
       d="M 402.97916,584.56590 L 555.12224,482.03470 L 555.45299,485.01141 L 405.95588,585.88888 L 402.97916,584.56590 z " />
    <path
       style="fill:#c2c2c2"
       id="174309384"
       class="fil62"
       d="M 405.95588,585.88888 L 555.45299,485.01141 L 555.78374,488.31887 L 409.26334,587.21187 L 405.95588,585.88888 z " />
    <path
       style="fill:#c1c1c1"
       id="174309296"
       class="fil63"
       d="M 409.26334,587.21187 L 555.78374,488.31887 L 555.78374,491.62633 L 412.24004,588.53485 L 409.26334,587.21187 z " />
    <path
       style="fill:#c1c1c1"
       id="174309208"
       class="fil63"
       d="M 412.24004,588.53485 L 555.78374,491.62633 L 556.11448,494.93378 L 415.21676,589.52709 L 412.24004,588.53485 z " />
    <path
       style="fill:#c0c0c0"
       id="174309120"
       class="fil64"
       d="M 415.21676,589.52709 L 556.11448,494.93378 L 556.44523,497.91050 L 418.19348,590.85007 L 415.21676,589.52709 z " />
    <path
       style="fill:#c0c0c0"
       id="174309032"
       class="fil64"
       d="M 418.19348,590.85007 L 556.44523,497.91050 L 556.44523,501.21796 L 421.50094,592.17306 L 418.19348,590.85007 z " />
    <path
       style="fill:#bfbfbf"
       id="174308944"
       class="fil65"
       d="M 421.50094,592.17306 L 556.44523,501.21796 L 556.77597,504.52542 L 424.47764,593.49604 L 421.50094,592.17306 z " />
    <path
       style="fill:#bebebe"
       id="174308856"
       class="fil66"
       d="M 424.47764,593.49604 L 556.77597,504.52542 L 557.10672,507.83287 L 427.45436,594.81902 L 424.47764,593.49604 z " />
    <path
       style="fill:#bebebe"
       id="174308768"
       class="fil66"
       d="M 427.45436,594.81902 L 557.10672,507.83287 L 557.10672,510.80959 L 430.76182,596.14201 L 427.45436,594.81902 z " />
    <path
       style="fill:#bdbdbd"
       id="174308680"
       class="fil67"
       d="M 430.76182,596.14201 L 557.10672,510.80959 L 557.43746,514.11704 L 433.73853,597.46499 L 430.76182,596.14201 z " />
    <path
       style="fill:#bdbdbd"
       id="174308592"
       class="fil67"
       d="M 433.73853,597.46499 L 557.43746,514.11704 L 557.76821,517.42450 L 436.71524,598.78797 L 433.73853,597.46499 z " />
    <path
       style="fill:#bcbcbc"
       id="174308504"
       class="fil68"
       d="M 436.71524,598.78797 L 557.76821,517.42450 L 557.76821,520.73196 L 439.69196,600.11095 L 436.71524,598.78797 z " />
    <path
       style="fill:#bcbcbc"
       id="174308416"
       class="fil68"
       d="M 439.69196,600.11095 L 557.76821,520.73196 L 558.09896,523.70867 L 442.99941,601.43393 L 439.69196,600.11095 z " />
    <path
       style="fill:#bbbbbb"
       id="174308328"
       class="fil69"
       d="M 442.99941,601.43393 L 558.09896,523.70867 L 558.42970,527.01612 L 445.97612,602.75692 L 442.99941,601.43393 z " />
    <path
       style="fill:#bababa"
       id="174308240"
       class="fil70"
       d="M 445.97612,602.75692 L 558.42970,527.01612 L 558.42970,530.65433 L 449.28358,604.07990 L 445.97612,602.75692 z " />
    <path
       style="fill:#bababa"
       id="174308152"
       class="fil70"
       d="M 449.28358,604.07990 L 558.42970,530.65433 L 558.76045,533.63104 L 452.59104,605.40289 L 449.28358,604.07990 z " />
    <path
       style="fill:#b9b9b9"
       id="174308064"
       class="fil71"
       d="M 452.59104,605.40289 L 558.76045,533.63104 L 559.09119,536.93850 L 455.56775,606.72587 L 452.59104,605.40289 z " />
    <path
       style="fill:#b9b9b9"
       id="174307976"
       class="fil71"
       d="M 455.56775,606.72587 L 559.09119,536.93850 L 559.09119,540.24596 L 458.54447,608.04886 L 455.56775,606.72587 z " />
    <path
       style="fill:#b8b8b8"
       id="174307888"
       class="fil72"
       d="M 458.54447,608.04886 L 559.09119,540.24596 L 559.42193,543.55342 L 461.52117,609.37184 L 458.54447,608.04886 z " />
    <path
       style="fill:#b8b8b8"
       id="174307800"
       class="fil72"
       d="M 461.52117,609.37184 L 559.42193,543.55342 L 559.75269,546.53013 L 464.82864,610.69483 L 461.52117,609.37184 z " />
    <path
       style="fill:#b7b7b7"
       id="174307712"
       class="fil73"
       d="M 464.82864,610.69483 L 559.75269,546.53013 L 559.75269,549.83759 L 467.80535,612.01781 L 464.82864,610.69483 z " />
    <path
       style="fill:#b6b6b6"
       id="174307624"
       class="fil74"
       d="M 467.80535,612.01781 L 559.75269,549.83759 L 560.08343,553.14506 L 470.78206,613.01004 L 467.80535,612.01781 z " />
    <path
       style="fill:#b6b6b6"
       id="174307536"
       class="fil74"
       d="M 470.78206,613.01004 L 560.08343,553.14506 L 560.41418,556.45251 L 474.08952,614.33302 L 470.78206,613.01004 z " />
    <path
       style="fill:#b5b5b5"
       id="174307448"
       class="fil75"
       d="M 474.08952,614.33302 L 560.41418,556.45251 L 560.41418,559.42922 L 477.06623,615.65600 L 474.08952,614.33302 z " />
    <path
       style="fill:#b5b5b5"
       id="174307360"
       class="fil75"
       d="M 477.06623,615.65600 L 560.41418,559.42922 L 560.74491,562.73668 L 480.04294,616.97899 L 477.06623,615.65600 z " />
    <path
       style="fill:#b4b4b4"
       id="174307272"
       class="fil76"
       d="M 480.04294,616.97899 L 560.74491,562.73668 L 561.07567,566.04414 L 483.01965,618.30197 L 480.04294,616.97899 z " />
    <path
       style="fill:#b4b4b4"
       id="174307184"
       class="fil76"
       d="M 483.01965,618.30197 L 561.07567,566.04414 L 561.07567,569.35159 L 486.32711,619.62496 L 483.01965,618.30197 z " />
    <path
       style="fill:#b3b3b3"
       id="174307096"
       class="fil77"
       d="M 486.32711,619.62496 L 561.07567,569.35159 L 561.40642,572.32832 L 489.30383,620.94795 L 486.32711,619.62496 z " />
    <path
       style="fill:#b2b2b2"
       id="174307008"
       class="fil78"
       d="M 489.30383,620.94795 L 561.40642,572.32832 L 561.73716,575.63577 L 492.28054,622.27093 L 489.30383,620.94795 z " />
    <path
       style="fill:#b2b2b2"
       id="174306920"
       class="fil78"
       d="M 492.28054,622.27093 L 561.73716,575.63577 L 492.28054,622.27093 z " />
    <path
       style="fill:#b2b2b2"
       id="174306832"
       class="fil78"
       d="M 492.28054,622.27093 L 561.73716,575.63577 L 561.73716,578.94323 L 495.58800,623.59392 L 492.28054,622.27093 z " />
    <path
       style="fill:#b2b2b2"
       id="174306744"
       class="fil78"
       d="M 495.58800,623.59392 L 561.73716,578.94323 L 562.06790,582.25068 L 498.56471,624.91690 L 495.58800,623.59392 z " />
    <path
       style="fill:#b1b1b1"
       id="174306656"
       class="fil79"
       d="M 498.56471,624.91690 L 562.06790,582.25068 L 562.39865,585.22740 L 501.54142,626.23988 L 498.56471,624.91690 z " />
    <path
       style="fill:#b1b1b1"
       id="174306568"
       class="fil79"
       d="M 501.54142,626.23988 L 562.39865,585.22740 L 562.39865,588.53485 L 504.84888,627.56286 L 501.54142,626.23988 z " />
    <path
       style="fill:#b0b0b0"
       id="174306480"
       class="fil80"
       d="M 504.84888,627.56286 L 562.39865,588.53485 L 562.72940,591.84231 L 507.82559,628.88584 L 504.84888,627.56286 z " />
    <path
       style="fill:#b0b0b0"
       id="174306392"
       class="fil80"
       d="M 507.82559,628.88584 L 562.72940,591.84231 L 563.06014,594.81902 L 510.80230,629.87808 L 507.82559,628.88584 z " />
    <path
       style="fill:#afafaf"
       id="174306304"
       class="fil81"
       d="M 510.80230,629.87808 L 563.06014,594.81902 L 563.06014,598.12648 L 513.77902,631.20106 L 510.80230,629.87808 z " />
    <path
       style="fill:#afafaf"
       id="174306216"
       class="fil81"
       d="M 513.77902,631.20106 L 563.06014,598.12648 L 563.39088,601.43393 L 517.08647,632.52405 L 513.77902,631.20106 z " />
    <path
       style="fill:#aeaeae"
       id="174306128"
       class="fil82"
       d="M 517.08647,632.52405 L 563.39088,601.43393 L 563.72164,604.74139 L 520.06319,633.84703 L 517.08647,632.52405 z " />
    <path
       style="fill:#aeaeae"
       id="174306040"
       class="fil82"
       d="M 520.06319,633.84703 L 563.72164,604.74139 L 563.72164,607.71811 L 523.03990,635.17002 L 520.06319,633.84703 z " />
    <path
       style="fill:#adadad"
       id="174305952"
       class="fil83"
       d="M 523.03990,635.17002 L 563.72164,607.71811 L 564.05238,611.02557 L 526.34736,636.49300 L 523.03990,635.17002 z " />
    <path
       style="fill:#adadad"
       id="174305864"
       class="fil83"
       d="M 526.34736,636.49300 L 564.05238,611.02557 L 564.38312,614.33302 L 529.32407,637.81598 L 526.34736,636.49300 z " />
    <path
       style="fill:#acacac"
       id="174305776"
       class="fil84"
       d="M 529.32407,637.81598 L 564.38312,614.33302 L 564.38312,617.30974 L 532.30078,639.13897 L 529.32407,637.81598 z " />
    <path
       style="fill:#ababab"
       id="174305688"
       class="fil85"
       d="M 532.30078,639.13897 L 564.38312,617.30974 L 564.71387,620.61719 L 535.27750,640.46195 L 532.30078,639.13897 z " />
    <path
       style="fill:#ababab"
       id="174305600"
       class="fil85"
       d="M 535.27750,640.46195 L 564.71387,620.61719 L 565.04462,623.92465 L 538.58495,641.78494 L 535.27750,640.46195 z " />
    <path
       style="fill:#aaaaaa"
       id="174305512"
       class="fil86"
       d="M 538.58495,641.78494 L 565.04462,623.92465 L 565.04462,627.23211 L 541.56166,643.10791 L 538.58495,641.78494 z " />
    <path
       style="fill:#aaaaaa"
       id="174305424"
       class="fil86"
       d="M 541.56166,643.10791 L 565.04462,627.23211 L 565.37536,630.20883 L 544.53838,644.43089 L 541.56166,643.10791 z " />
    <path
       style="fill:#a9a9a9"
       id="174305336"
       class="fil87"
       d="M 544.53838,644.43089 L 565.37536,630.20883 L 565.70610,633.51628 L 547.84583,645.42313 L 544.53838,644.43089 z " />
    <path
       style="fill:#a9a9a9"
       id="174305248"
       class="fil87"
       d="M 547.84583,645.42313 L 565.70610,633.51628 L 565.70610,636.82375 L 550.82255,646.74612 L 547.84583,645.42313 z " />
    <path
       style="fill:#a8a8a8"
       id="174305160"
       class="fil88"
       d="M 550.82255,646.74612 L 565.70610,636.82375 L 566.03686,640.13120 L 554.13000,648.06910 L 550.82255,646.74612 z " />
    <path
       style="fill:#a8a8a8"
       id="174305072"
       class="fil88"
       d="M 554.13000,648.06910 L 566.03686,640.13120 L 566.36761,643.10791 L 557.10672,649.39208 L 554.13000,648.06910 z " />
    <path
       style="fill:#a7a7a7"
       id="174304984"
       class="fil89"
       d="M 557.10672,649.39208 L 566.36761,643.10791 L 566.36761,646.41537 L 560.08343,650.71507 L 557.10672,649.39208 z " />
    <path
       style="fill:#a7a7a7"
       id="174304896"
       class="fil89"
       d="M 560.08343,650.71507 L 566.36761,646.41537 L 566.69834,649.72283 L 563.06014,652.03805 L 560.08343,650.71507 z " />
    <path
       style="fill:#a6a6a6"
       id="174304808"
       class="fil90"
       d="M 563.06014,652.03805 L 566.69834,649.72283 L 567.02909,652.69953 L 566.03686,653.36104 L 563.06014,652.03805 z " />
    <path
       style="fill:#a5a5a5"
       id="174304720"
       class="fil91"
       d="M 566.03686,653.36104 L 567.02909,652.69953 L 567.02909,653.69178 L 566.03686,653.36104 z " />
  </g>
</svg>
